<?xml version="1.0" encoding="utf-8"?>
<!-- Generator: Adobe Illustrator 27.5.0, SVG Export Plug-In . SVG Version: 6.00 Build 0)  -->
<svg version="1.1" id="Layer_1" xmlns="http://www.w3.org/2000/svg" xmlns:xlink="http://www.w3.org/1999/xlink" x="0px" y="0px"
	 viewBox="0 0 900 900" style="enable-background:new 0 0 900 900;display:none;" xml:space="preserve">
<rect style="display:inline;fill:#4DAEFF;" width="899.999" height="900"/>
<polygon style="display:inline;opacity:0.36;" points="729.897,807.106 761.25,803.629 729.897,520.912 729.897,100.671 
	683.293,100.671 681.945,88.521 572.386,100.671 183.371,100.671 183.371,143.813 138.749,148.761 183.371,551.125 183.371,820.163 
	213.207,820.163 218.054,863.869 612.16,820.163 729.897,820.163 "/>
<path style="display:inline;opacity:0.36;" d="M664.46,437.955l4.146,16.735l-32.408,8.359l2.469,9.572l-16.024,4.917
	c-7.65,2.348-15.942,1.264-22.732-2.971l-74.338-46.364c-10.037-6.26-22.368-7.639-33.538-3.75l-40.458,14.08l-28.327-6.07
	c-8.72-1.869-17.824,0.096-24.998,5.395l-65.145,48.118c-4.784,3.533-11.014,4.446-16.61,2.434l-25.822-9.284l2.141-8.301
	l-32.408-8.359l4.146-16.735L0,380.195v155.843v38.977v2.232l218.517,54.131l0.52-2.103l0.045,0.011l6.075-24.522l31.046,8.008
	l4.53-17.565l60.871,25.099c-0.011,0.011-0.021,0.021-0.032,0.031l2.81,1.159l0.031-0.032l0.078,0.032l0,0l0,0l0.011-0.011
	l27.126-27.975l-27.811,28.924c-15.281,15.893-2.168,42.795,19.654,39.646c3.72-0.537,7.839-1.764,12.397-3.868
	c0,0,4.016,33.494,39.268,30.853c0,0,4.798,33.881,43.825,25.591v0l0,0c0,0,0.375,0.692,1.167,1.745
	c0.088,0.117,0.182,0.238,0.28,0.364c2.757,3.512,9.606,10.155,21.859,9.928c0.017,0,0.036-0.002,0.053-0.002
	c1.667-0.033,3.437-0.197,5.308-0.51c0.17-0.029,0.342-0.059,0.514-0.09c5.8-1.047,12.574-3.55,20.419-8.236l7.385,7.43
	c10.043,10.102,25.64,10.633,34.837,1.185l0.337-0.346c9.195-9.445,8.514-25.287-1.522-35.39l1.85,1.861
	c9.017,9.07,23.557,8.996,32.476-0.164l4.038-4.148c5.337-5.483,7.427-12.976,6.331-20.055c7.433,0.645,15.08-1.938,20.735-7.747
	l0.371-0.38c8.218-8.442,9.701-21.087,4.488-31.052c7.41,1.624,15.449-0.49,21.174-6.371c4.881-5.014,7.048-11.71,6.549-18.232
	l41.697-13.027l3.502,13.577l31.046-8.008l6.075,24.522l0.045-0.011l0.521,2.102l189.502-46.943v-2.232V535.45V379.607
	L664.46,437.955z"/>
<rect x="174.86" y="96.449" transform="matrix(0.9939 -0.1102 0.1102 0.9939 -47.5531 52.1736)" style="display:inline;fill:#EDE2D9;" width="546.526" height="719.492"/>
<polygon style="display:inline;opacity:0.66;fill:#B7AC9A;" points="390.131,100.604 181.459,123.745 181.459,531.057 
	213.513,820.096 429.905,820.096 727.985,787.039 727.985,500.845 683.598,100.604 "/>
<rect x="181.494" y="80.671" style="display:inline;fill:#FFFFFF;" width="546.526" height="719.492"/>
<line style="display:inline;fill:none;stroke:#B9C9BC;stroke-width:7;stroke-miterlimit:10;" x1="274.637" y1="268" x2="634.281" y2="268"/>
<line style="display:inline;fill:none;stroke:#B9C9BC;stroke-width:7;stroke-miterlimit:10;" x1="244.637" y1="328" x2="664.281" y2="328"/>
<line style="display:inline;fill:none;stroke:#B9C9BC;stroke-width:7;stroke-miterlimit:10;" x1="244.637" y1="298" x2="664.281" y2="298"/>
<line style="display:inline;fill:none;stroke:#B9C9BC;stroke-width:7;stroke-miterlimit:10;" x1="244.637" y1="384.891" x2="664.281" y2="384.891"/>
<line style="display:inline;fill:none;stroke:#B9C9BC;stroke-width:7;stroke-miterlimit:10;" x1="244.637" y1="354.891" x2="664.281" y2="354.891"/>
<line style="display:inline;fill:none;stroke:#B9C9BC;stroke-width:7;stroke-miterlimit:10;" x1="563.514" y1="708" x2="663.157" y2="708"/>
<line style="display:inline;fill:none;stroke:#B9C9BC;stroke-width:7;stroke-miterlimit:10;" x1="563.514" y1="678" x2="663.157" y2="678"/>
<g style="display:inline;">
	<path style="fill:#4893C1;" d="M387.302,701.72c-13.079,38.653-55.167,59.46-93.821,46.381
		c-38.654-13.079-59.46-55.167-46.381-93.821s55.167-59.46,93.821-46.381C379.575,620.978,400.381,663.066,387.302,701.72z
		 M250.118,655.301c-12.516,36.99,7.394,77.265,44.384,89.782c36.99,12.516,77.265-7.394,89.782-44.384
		c12.516-36.99-7.394-77.265-44.384-89.782C302.91,598.401,262.634,618.311,250.118,655.301z"/>
</g>
<g style="display:inline;">
	<path style="fill:#4893C1;" d="M377.832,698.516c-4.111,12.15-11.659,22.661-21.827,30.397l-2.087-2.744
		c9.618-7.317,16.758-17.261,20.648-28.757c4.058-11.994,4.283-24.719,0.65-36.801l3.301-0.993
		C382.358,672.388,382.121,685.839,377.832,698.516z"/>
</g>
<g style="display:inline;">
	<path style="fill:#4893C1;" d="M259.186,695.39l-3.301,0.993c-3.841-12.772-3.604-26.224,0.685-38.9
		c4.111-12.149,11.659-22.66,21.827-30.397l2.087,2.744c-9.618,7.317-16.759,17.262-20.648,28.757
		C255.777,670.583,255.553,683.308,259.186,695.39z"/>
</g>
<g style="display:inline;">
	<path style="fill:#4893C1;" d="M368.709,694.772c-9.427,27.859-39.761,42.854-67.619,33.428
		c-27.859-9.427-42.855-39.76-33.428-67.619c9.427-27.859,39.76-42.854,67.619-33.428
		C363.14,636.58,378.136,666.913,368.709,694.772z M270.927,661.686c-8.817,26.058,5.209,54.431,31.267,63.249
		c26.058,8.817,54.431-5.209,63.249-31.267c8.817-26.058-5.209-54.431-31.267-63.249
		C308.118,621.601,279.745,635.628,270.927,661.686z"/>
</g>
<line style="display:inline;fill:none;stroke:#B9C9BC;stroke-width:7;stroke-miterlimit:10;" x1="244.936" y1="411.446" x2="664.579" y2="411.446"/>
<line style="display:inline;fill:none;stroke:#B9C9BC;stroke-width:7;stroke-miterlimit:10;" x1="244.936" y1="468.337" x2="664.579" y2="468.337"/>
<line style="display:inline;fill:none;stroke:#B9C9BC;stroke-width:7;stroke-miterlimit:10;" x1="244.935" y1="438.337" x2="664.579" y2="438.337"/>
<g style="display:inline;">
	<path style="fill:#5294DB;" d="M275.272,161.856c10.288,0,21.426,5.605,23.342,18.872c-4.328,0-8.16,0-12.487,0
		c-1.774-5.037-5.535-7.308-10.856-7.308c-7.449,0-12.345,5.605-12.345,13.835c0,7.308,4.825,13.693,12.345,13.764
		c5.392,0,9.72-2.696,11.068-8.017c4.257,0,8.159,0,12.487,0c-1.845,14.047-12.983,19.582-23.555,19.582
		c-12.629,0.071-25.399-8.443-25.47-25.328C249.873,170.37,262.643,161.856,275.272,161.856z"/>
	<path style="fill:#5294DB;" d="M305.491,187.326c0-34.339,50.94-34.339,50.94,0C356.431,221.736,305.491,221.736,305.491,187.326z
		 M343.448,187.326c0-17.879-24.903-17.879-24.903,0C318.545,205.347,343.448,205.347,343.448,187.326z"/>
	<path style="fill:#5294DB;" d="M379.128,187.681v24.406c-4.398,0-8.797,0-13.125,0v-49.876h4.612l25.115,24.548v-24.335
		c4.328,0,8.656,0,12.983,0v49.734h-4.541L379.128,187.681z"/>
	<path style="fill:#5294DB;" d="M416.443,173.775c0-3.831,0-7.592,0-11.352h36.893c0,3.76,0,7.52,0,11.352h-12.133v38.312
		c-4.186,0-8.372,0-12.558,0v-38.312H416.443z"/>
	<path style="fill:#5294DB;" d="M503.136,210.242v1.844h-14.19l-8.513-14.615h-6.598v14.615c-4.257,0-8.585,0-12.699,0
		c0-16.531,0-33.062,0-49.663c7.165,0,14.544,0,21.78,0c19.511,0.071,23.058,23.555,10.5,32.068L503.136,210.242z M482.917,173.775
		c-2.98-0.071-6.101,0-9.081,0c0,4.044,0,8.443,0,12.416h9.081C489.798,186.191,490.153,173.846,482.917,173.775z"/>
	<path style="fill:#5294DB;" d="M541.726,205.843h-19.582l-2.909,6.243H506.82v-1.844l22.348-48.457h5.463l22.419,48.457v1.844
		h-12.416L541.726,205.843z M531.865,181.934l-5.605,13.054h11.351L531.865,181.934z"/>
	<path style="fill:#5294DB;" d="M584.929,161.856c10.288,0,21.426,5.605,23.342,18.872c-4.328,0-8.159,0-12.487,0
		c-1.774-5.037-5.535-7.308-10.856-7.308c-7.449,0-12.345,5.605-12.345,13.835c0,7.308,4.825,13.693,12.345,13.764
		c5.392,0,9.72-2.696,11.068-8.017c4.257,0,8.159,0,12.486,0c-1.844,14.047-12.983,19.582-23.555,19.582
		c-12.629,0.071-25.399-8.443-25.47-25.328C559.53,170.37,572.3,161.856,584.929,161.856z"/>
	<path style="fill:#5294DB;" d="M613.304,173.775c0-3.831,0-7.592,0-11.352h36.893c0,3.76,0,7.52,0,11.352h-12.133v38.312
		c-4.186,0-8.372,0-12.558,0v-38.312H613.304z"/>
</g>
<ellipse transform="matrix(0.7071 -0.7071 0.7071 0.7071 -386.5122 422.8765)" style="display:inline;fill:#4893C1;" cx="317.201" cy="678" rx="41.701" ry="41.701"/>
<g style="display:inline;">
	<path style="fill:#001D4F;" d="M682.613,685.257c-8.574,7.251-17.674,14.138-28.057,18.594c-2.371,1.018-4.808,1.937-7.365,2.353
		c-3.637,0.592-6.035,0.129-7.575-3.428c-1.66-3.832,0.035-7.626-0.487-11.756c-0.075-0.594-0.365-1.648-1.115-1.699
		c-3.016-0.205-5.829,3.055-7.981,4.928c-1.625,1.414-3.154,2.908-4.621,4.456c1.041-4.431,1.174-9.007-0.484-12.578
		c-0.184-0.397-0.645-0.881-1.126-0.595c-6.526,3.887-11.868,10.493-16.879,16.117c-1.206,1.353-2.385,2.727-3.557,4.107
		c-0.06-0.488-0.149-0.944-0.281-1.352c1.538-1.239,2.826-2.616,3.623-3.78c2.566-3.747,4.267-9.763,2.039-14.084
		c-3.301-6.398-10.265-2.221-14.045,1.429c-1.048,1.011-0.353,5.464,1.167,3.996c1.435-1.384,5.601-5.292,8.008-4.251
		c1.063,1.864,2.126,3.727,3.189,5.591c-0.328,0.794-0.655,1.589-0.982,2.384c-0.862,1.612-2.076,2.947-3.473,4.097
		c-0.944,0.777-2.302,1.757-3.704,2.419c-0.436,0.091-0.895,0.215-1.408,0.41c-0.104,0.04-0.195,0.107-0.28,0.188
		c-0.423,0.096-0.839,0.159-1.232,0.137c-4.301-0.232-3.103-6.499-2.019-9.679c0.242-0.709-0.376-4.865-1.583-3.166
		c-1.474,2.076-2.754,4.148-4.525,6.028c-2.115,2.247-5.878,6.68-9.075,7.395c-1.362,0.305-3.038,0.324-3.44-1.898
		c-0.112-0.616,0.871-2.564,1.103-3.151c1.14-2.89,2.462-5.453,3.179-8.496c0.216-0.912,0.389-3.312-0.999-3.482
		c-3.64-0.449-8.402,2.227-11.8,3.312c-2.809,0.897-5.564,1.877-8.277,2.973c0.103-1.161,0.168-2.314,0.189-3.45
		c0.164-9.286-2.516-19.915,0.59-28.895c1.696-4.909,5.51-7.354,10.203-8.873c2.442-0.791,9.873-2.782,13.085-0.785
		c0.166,0.771,0.534,1.344,1.076,1.252c0.153-0.026,0.306-0.052,0.459-0.078c1.668-0.285,1.251-3.359,0.584-4.313
		c-2.596-3.711-10.45-1.985-13.893-1.088c-5.034,1.311-9.859,3.702-12.282,8.507c-5.994,11.885-1.109,25.895-2.491,38.758
		c-1.058,0.467-2.109,0.95-3.151,1.469c-7.873,3.915-15.656,8.722-22.164,14.671c-3.78,3.456-8.204,9.045-6.585,14.642
		c1.702,5.881,8.048,4.481,12.429,2.736c11.899-4.741,18.919-17.143,21.262-29.558c2.79-1.187,5.627-2.233,8.539-3.17
		c2.551-0.82,6.638-2.778,9.887-3.353c-2.297,5.316-6.142,13.124-2.605,16.907c3.82,4.084,11.195-3.248,15.925-8.942
		c-0.426,3.026-0.071,5.956,2.341,7.643c2.128,1.487,4.796,1.131,7.324-0.04c1.066-0.042,1.563,0.678,1.68,1.847
		c-3.52,4.288-6.899,8.69-10.088,13.235c-4.266,6.08-8.548,12.243-11.237,19.215c-1.015,2.631-3.052,7.148-1.527,9.927
		c3.811,6.938,19.226-22.032,20.611-25.286c0.785-1.843,3.289-8.429,4.306-14.191c2.094-2.517,4.227-5.002,6.432-7.424
		c3.622-3.975,7.347-8.073,11.41-11.604c4.29-3.728,2.695,2.274,1.951,5.101c-0.726,2.76-1.804,6.102-3.397,8.554
		c-0.773,1.188,0.109,5.612,1.167,3.996c2.219-3.386,4.79-6.439,7.696-9.26c1.894-1.84,5.529-6.189,8.696-6.876
		c-0.113,4.066-1.956,8.142-0.137,12.129c2.18,4.776,7.359,5.399,11.981,4.332c13.185-3.044,24.879-12.726,34.96-21.253
		C684.888,688.318,684.254,683.87,682.613,685.257z M554.936,699.637c-2.447,8.196-7.124,16.106-14.41,20.853
		c-2.728,1.777-7.164,4.252-10.519,3.81c-7.331-0.964-0.141-8.474,1.919-10.355c6.301-5.756,13.995-10.418,21.611-14.205
		c0.521-0.259,1.047-0.492,1.572-0.738C555.05,699.213,554.998,699.426,554.936,699.637z M596.673,723.404
		c-2.389,5.456-5.348,10.625-8.732,15.522c-1.76,2.547-3.634,5.08-5.804,7.294c-1.849,1.885-2.269,2.535-1.47-0.109
		c1.65-5.458,4.785-10.523,7.921-15.223c3.466-5.193,7.156-10.232,11.03-15.126C598.522,719.148,597.103,722.424,596.673,723.404z"
		/>
	<path style="fill:#001D4F;" d="M578.689,675.473c-1.519,2.746-0.393,5.533,1.721,7.525c1.314,1.239,1.92-2.559,1.001-3.424
		c-0.27-0.255-1.139-0.92-1.376-1.399c0.119,0.042,0.367-0.327,0.436-0.365c0.423-0.233,0.788-0.752,1.175-1.053
		c1.195-0.929,2.591-1.996,4.09-2.335c1.433-0.324,1.194-4.237,0-3.966C583.203,671.03,579.973,673.154,578.689,675.473z"/>
</g>
<path style="display:inline;opacity:0.4;fill:#6D645B;" d="M728.021,424.185L664.46,439.93l4.146,16.735l-32.408,8.359l2.469,9.572
	l-16.024,4.917c-7.65,2.348-15.942,1.264-22.732-2.971l-74.338-46.363c-10.037-6.26-22.368-7.639-33.538-3.75l-40.458,14.081
	l-28.327-6.07c-8.72-1.869-17.824,0.096-24.998,5.395l-65.145,48.118c-4.784,3.533-11.014,4.446-16.61,2.434l-25.822-9.284
	l2.141-8.301l-32.408-8.359l4.146-16.735l-83.06-20.575v197.052l37.023,9.171l0.52-2.102l0.045,0.011l6.075-24.522l31.046,8.008
	l4.53-17.564l60.871,25.099c-0.011,0.011-0.021,0.021-0.032,0.031l2.81,1.159l0.031-0.032l0.078,0.032l0.011-0.011l27.126-27.975
	l-27.811,28.924c-15.281,15.893-2.168,42.795,19.654,39.646c3.72-0.537,7.839-1.764,12.397-3.868c0,0,4.016,33.494,39.268,30.853
	c0,0,4.798,33.881,43.825,25.591v0c0,0,0.375,0.692,1.167,1.745c0.088,0.117,0.182,0.238,0.28,0.364
	c2.757,3.512,9.606,10.155,21.859,9.927c0.017,0,0.036-0.002,0.053-0.002c1.667-0.034,3.437-0.197,5.308-0.51
	c0.17-0.029,0.342-0.059,0.514-0.09c5.8-1.047,12.574-3.55,20.419-8.236l7.385,7.43c10.043,10.102,25.64,10.633,34.837,1.185
	l0.337-0.346c9.195-9.446,8.514-25.287-1.522-35.39l1.85,1.861c9.017,9.07,23.557,8.996,32.476-0.164l4.038-4.148
	c5.337-5.483,7.427-12.976,6.331-20.055c7.433,0.645,15.08-1.938,20.735-7.747l0.371-0.38c8.218-8.442,9.701-21.087,4.488-31.052
	c7.41,1.624,15.449-0.49,21.174-6.371c4.881-5.014,7.048-11.71,6.549-18.232l41.697-13.027l3.502,13.577l31.046-8.008l6.075,24.522
	l0.045-0.011l0.521,2.103l30.298-9.481L728.021,424.185z"/>
<path style="display:inline;fill:#E67E4B;" d="M446.204,470.544l-128.85,134.011c-15.281,15.893-2.168,42.796,19.654,39.646
	c3.72-0.537,7.839-1.764,12.397-3.868c0,0,4.016,33.494,39.267,30.853c0,0,4.798,33.881,43.826,25.591
	c0,0,18.939,35.016,72.466-14.372c26.41-24.368,113.775-95.088,113.775-95.088L446.204,470.544z"/>
<path style="display:inline;fill:#FFA97D;" d="M815.661,393l-193.019,59.233c-7.65,2.348-15.942,1.264-22.732-2.971l-74.338-46.364
	c-10.036-6.26-22.367-7.639-33.539-3.751l-83.07,28.912l43.706,35.06l-128.85,134.011c-15.281,15.893-2.168,42.796,19.654,39.646
	c3.72-0.537,7.839-1.764,12.397-3.868c0,0,4.016,33.494,39.267,30.853c0,0,4.798,33.881,43.826,25.591
	c0,0,18.939,35.016,72.466-14.372c26.41-24.368,113.775-95.087,113.775-95.087l224.229-70.055L815.661,393z"/>
<path style="display:inline;fill:#EA8F68;" d="M552.377,512.7c17.688-8.242,14.679-23.48,7.507-29.056l-54.003-42.997
	c-5.795-4.614-12.581-7.823-19.824-9.375l-53.903-11.55l-21.858,7.607l43.706,35.06l-35.45,36.87
	c5.229-0.283,31.35-2.161,52.877-12.207C471.43,487.051,514.354,530.417,552.377,512.7z"/>
<path style="display:inline;fill:#FFC692;" d="M569.135,474.972l-54.003-42.997c-5.795-4.614-12.581-7.823-19.824-9.375
	l-72.058-15.441c-8.72-1.869-17.824,0.096-24.997,5.395l-65.145,48.118c-4.783,3.533-11.014,4.446-16.61,2.434l-98.028-35.246
	l-9.617,120.652l115.64,47.682l102.357-105.561c0,0,29.789-1.034,53.831-12.253c0,0,42.924,43.367,80.948,25.649
	C579.316,495.786,576.307,480.548,569.135,474.972z"/>
<path style="display:inline;fill:#DE7540;" d="M550.51,502.39c-30.481,0.305-66.673-36.238-67.553-36.451
	c0,0-26.317,24.851-74.115,13.42c0,0-7.766,28.178-52.214,78.901c-8.325,9.501-21.741,12.719-33.495,8.092
	c-4.417-1.739-9.369-3.535-14.664-5.39c-12.653-4.432-20.961-16.575-20.492-29.974l2.699-77.166
	c-34.064-11.836-79.855,71.6-78.714,55.685l-3.108,39.005l112.752,46.492c-0.011,0.011-0.021,0.021-0.032,0.031l2.81,1.159
	l0.031-0.032l0.078,0.032l18.651-19.348l83.597-86.213c0,0,29.789-1.034,53.83-12.253c-0.197-0.055,42.395,43.218,80.948,25.649
	c6.726-3.065,10.456-7.181,12.105-11.412C571.264,497.116,563.172,502.263,550.51,502.39z"/>
<path style="display:inline;fill:#E67E4B;" d="M473.737,689.354c-32.502-31.628-25.415-51.444-25.415-51.444l172.114-81.494
	l0.238-0.053c13.573-3.006,22.982-15.386,22.242-29.269l-4.25-79.778l209.644,58.641l1.122,3.883l-224.229,70.055
	c0,0-87.365,70.72-113.775,95.088c-53.527,49.388-72.466,14.372-72.466,14.372S453.878,705.349,473.737,689.354z"/>
<g style="display:inline;">
	<path style="fill:#E67E4B;" d="M354.638,639.678c27.235-25.498,54.471-50.996,81.707-76.494c2.358-2.208-1.185-5.736-3.536-3.536
		c-27.236,25.498-54.471,50.996-81.707,76.494C348.744,638.35,352.287,641.878,354.638,639.678L354.638,639.678z"/>
</g>
<g style="display:inline;">
	<path style="fill:#E67E4B;" d="M393.905,670.531c26.2-25.36,52.4-50.721,78.6-76.081c2.32-2.246-1.219-5.778-3.536-3.536
		c-26.2,25.36-52.4,50.721-78.6,76.081C388.049,669.241,391.588,672.773,393.905,670.531L393.905,670.531z"/>
</g>
<g style="display:inline;">
	<path style="fill:#E67E4B;" d="M437.73,696.122c23.183-22.399,46.366-44.798,69.548-67.197c2.322-2.244-1.217-5.776-3.536-3.536
		c-23.183,22.399-46.366,44.798-69.548,67.197C431.872,694.83,435.412,698.362,437.73,696.122L437.73,696.122z"/>
</g>
<path style="display:inline;fill:#DE7540;" d="M454.598,624.525l0.336-0.346c9.197-9.446,24.792-8.917,34.835,1.183l-1.854-1.866
	c-9.017-9.07-9.096-23.85-0.177-33.011l4.037-4.148c5.339-5.483,12.687-7.684,19.664-6.645c-0.712-7.547,1.748-15.348,7.404-21.156
	l0.371-0.38c10.117-10.393,26.61-10.477,36.839-0.187l4.865,4.894c-0.92-6.929,1.196-14.196,6.406-19.549
	c8.919-9.161,23.459-9.234,32.475-0.164l21.089,21.213c9.016,9.07,9.095,23.85,0.176,33.012c-5.725,5.881-13.764,7.995-21.174,6.371
	c5.213,9.966,3.73,22.611-4.488,31.052l-0.371,0.38c-5.655,5.809-13.302,8.391-20.735,7.747c1.095,7.079-0.994,14.572-6.331,20.055
	l-4.037,4.148c-8.919,9.161-23.459,9.234-32.476,0.164l-21.768-21.898l19.911,20.03c10.043,10.102,10.727,25.95,1.529,35.397
	l-0.337,0.346c-9.197,9.448-24.794,8.917-34.837-1.185l-39.821-40.059C446.084,649.82,445.399,633.973,454.598,624.525z"/>
<polygon style="display:inline;fill:#FFFFFF;" points="861.335,531.066 672.81,579.692 636.197,437.744 876.511,375.76 "/>
<rect x="81.056" y="361.413" transform="matrix(0.2498 -0.9683 0.9683 0.2498 -354.3134 513.7069)" style="display:inline;fill:#FFFFFF;" width="146.594" height="248.179"/>
<g style="display:inline;">
	<path style="fill:#DE7540;" d="M533.217,664.524c-14.512-14.598-29.024-29.197-43.536-43.795c-2.272-2.285-5.808,1.25-3.536,3.536
		c14.512,14.598,29.024,29.197,43.536,43.795C531.953,670.344,535.49,666.809,533.217,664.524L533.217,664.524z"/>
</g>
<polygon style="display:inline;opacity:0.4;fill:#869E9A;" points="67.545,539.018 256.07,587.644 260.505,437.337 23.369,493.712 
	"/>
<polygon style="display:inline;fill:#4F455E;" points="0,354.891 0,549.711 219.083,603.983 264.554,420.426 "/>
<polygon style="display:inline;opacity:0.4;fill:#869E9A;" points="861.565,531.066 673.04,579.692 668.605,429.385 
	832.451,468.337 "/>
<polygon style="display:inline;fill:#302C3D;" points="0,510.734 0,551.943 218.517,606.074 228.134,567.248 "/>
<polygon style="display:inline;fill:#546982;" points="899.999,354.303 664.46,412.65 709.931,596.207 899.999,549.123 "/>
<polygon style="display:inline;fill:#384559;" points="899.999,510.146 700.879,559.472 710.497,598.298 899.999,551.355 "/>
<g style="display:inline;">
	<path style="fill:#FFC692;" d="M455.827,654.283c12.1,11.745,24.2,23.49,36.3,35.234c8.453,8.205,23.516,9.046,31.82,0
		c8.144-8.872,9.023-23.062,0-31.82c-12.1-11.745-24.2-23.49-36.3-35.234c-8.453-8.205-23.516-9.046-31.82,0
		C447.683,631.335,446.804,645.525,455.827,654.283L455.827,654.283z"/>
</g>
<g style="display:inline;">
	<path style="fill:#FFC692;" d="M487.138,616.857c12.499,11.32,24.997,22.64,37.496,33.96c8.432,7.637,22.544,8.948,30.759,0
		c7.646-8.329,9.006-22.602,0-30.759c-12.499-11.32-24.997-22.64-37.496-33.96c-8.432-7.637-22.545-8.949-30.759,0
		C479.492,594.427,478.132,608.7,487.138,616.857L487.138,616.857z"/>
</g>
<g style="display:inline;">
	<path style="fill:#FFC692;" d="M523.002,585.612c12.499,11.32,24.997,22.64,37.496,33.96c8.723,7.9,23.322,9.257,31.82,0
		c7.909-8.616,9.317-23.382,0-31.82c-12.498-11.32-24.997-22.64-37.496-33.96c-8.723-7.9-23.322-9.257-31.82,0
		C515.092,562.408,513.685,577.174,523.002,585.612L523.002,585.612z"/>
</g>
<g style="display:inline;">
	<path style="fill:#FFC692;" d="M571.74,562.171c9.192,8.27,18.384,16.541,27.577,24.811c6.415,5.772,17.089,6.803,23.335,0
		c5.784-6.301,6.853-17.169,0-23.335c-9.192-8.27-18.384-16.54-27.577-24.811c-6.415-5.772-17.089-6.803-23.335,0
		C565.956,545.137,564.887,556.005,571.74,562.171L571.74,562.171z"/>
</g>
<g style="display:inline;">
	<path style="fill:#FFFFFF;" d="M304.323,703.109c-5.794-3.081-10.163-7.628-13.06-13.513c-2.01-4.084-8.113-0.503-6.107,3.57
		c3.385,6.875,8.835,12.454,15.598,16.05C304.77,711.352,308.348,705.249,304.323,703.109L304.323,703.109z"/>
</g>
<g style="display:inline;">
	<path style="fill:#FFFFFF;" d="M326.133,704.694c-2.959,0.93-5.897,1.412-8.999,1.447c-4.548,0.052-4.56,7.125,0,7.073
		c3.693-0.042,7.355-0.592,10.879-1.7C332.341,710.155,330.493,703.325,326.133,704.694L326.133,704.694z"/>
</g>
<g style="display:inline;">
	<path style="fill:#FFFFFF;" d="M331.889,653.333c10.156,6.453,15.307,17.972,13.185,29.854c-0.795,4.451,6.02,6.361,6.82,1.88
		c2.699-15.116-3.428-29.577-16.436-37.842C331.605,644.777,328.053,650.896,331.889,653.333L331.889,653.333z"/>
</g>
<g style="display:inline;">
	<path style="fill:#FFFFFF;" d="M305.665,651.584c3.71-1.506,7.462-2.315,11.469-2.369c4.548-0.061,4.561-7.134,0-7.073
		c-4.595,0.062-9.089,0.892-13.35,2.622c-1.783,0.723-2.998,2.348-2.47,4.35C301.759,650.797,303.898,652.302,305.665,651.584
		L305.665,651.584z"/>
</g>
<g style="display:inline;">
	<path style="fill:#FFFFFF;" d="M288.804,674.749c0.601-5.555,2.796-10.519,6.141-14.953c2.741-3.635-3.397-7.163-6.107-3.57
		c-4.13,5.476-6.372,11.735-7.106,18.523C281.242,679.268,288.319,679.234,288.804,674.749L288.804,674.749z"/>
</g>
</svg>
