<?xml version="1.0" encoding="utf-8"?>
<!-- Generator: Adobe Illustrator 27.5.0, SVG Export Plug-In . SVG Version: 6.00 Build 0)  -->
<svg version="1.1" id="Layer_1" xmlns="http://www.w3.org/2000/svg" xmlns:xlink="http://www.w3.org/1999/xlink" x="0px" y="0px"
	 viewBox="0 0 2599 1733" style="enable-background:new 0 0 2599 1733;" xml:space="preserve">
<g>
	<g>
		<defs>
			<rect id="SVGID_1_" width="2598.076" height="1732.051"/>
		</defs>
		
			<linearGradient id="SVGID_00000067230340036703697780000015099752529063314364_" gradientUnits="userSpaceOnUse" x1="1299.0381" y1="1759.6719" x2="1299.0381" y2="-467.555">
			<stop  offset="0" style="stop-color:#FFFFFF"/>
			<stop  offset="0.3597" style="stop-color:#FBFBFB"/>
			<stop  offset="0.7264" style="stop-color:#EFEFEF"/>
			<stop  offset="1" style="stop-color:#E0E0E0"/>
		</linearGradient>
		<use xlink:href="#SVGID_1_"  style="overflow:visible;fill:url(#SVGID_00000067230340036703697780000015099752529063314364_);"/>
		<clipPath id="SVGID_00000068673071754018739860000011223420825065964729_">
			<use xlink:href="#SVGID_1_"  style="overflow:visible;"/>
		</clipPath>
		
			<linearGradient id="SVGID_00000104692493199390382970000016063063807440329090_" gradientUnits="userSpaceOnUse" x1="1066.934" y1="373.3164" x2="1066.934" y2="1753.9961">
			<stop  offset="0" style="stop-color:#D9D9D9"/>
			<stop  offset="1" style="stop-color:#575757"/>
		</linearGradient>
		
			<polygon style="opacity:0.3;clip-path:url(#SVGID_00000068673071754018739860000011223420825065964729_);fill:url(#SVGID_00000104692493199390382970000016063063807440329090_);" points="
			-226.629,2214.284 -174.561,2449.169 1987.175,1927.895 2360.497,1837.873 2360.368,1239.138 1985.424,1174.133 
			1880.018,1155.858 1879.972,818.118 1749.61,797.385 1476.484,753.949 1476.474,604.97 1077.14,691.236 1030.487,701.315 
			1030.485,938.682 832.466,978.131 601.034,1024.236 601.001,1448.048 -226.499,1615.511 		"/>
		
			<linearGradient id="SVGID_00000079473335116570894610000002861952520415699584_" gradientUnits="userSpaceOnUse" x1="1066.9343" y1="621.0082" x2="1066.9343" y2="1556.5448">
			<stop  offset="0" style="stop-color:#D9D9D9"/>
			<stop  offset="1" style="stop-color:#575757"/>
		</linearGradient>
		
			<polygon style="clip-path:url(#SVGID_00000068673071754018739860000011223420825065964729_);fill:url(#SVGID_00000079473335116570894610000002861952520415699584_);" points="
			1985.424,1174.133 1085.912,1018.181 1750.646,850.701 1879.972,818.118 1749.61,797.385 1128.553,698.615 1476.474,604.97 
			1077.14,691.236 1030.487,701.315 1077.692,711.272 1609.219,823.389 832.466,978.131 601.034,1024.236 833.697,1076.714 
			1591.413,1247.616 -226.499,1615.511 -174.437,1850.373 1987.083,1329.151 2360.368,1239.138 		"/>
	</g>
	<g>
		<path style="fill:#FF4615;" d="M659.665,1260.38c0,197.076-234.917,350.452-234.917,350.452S189.83,1464.21,189.83,1260.38
			c0-129.741,105.176-234.917,234.917-234.917C554.489,1025.463,659.665,1130.639,659.665,1260.38z"/>
		<circle style="fill:#FFFFFF;" cx="424.748" cy="1260.38" r="184.288"/>
	</g>
	<g>
		<path style="fill:#FF4615;" d="M380.47,1350.713c-19.563,0-29.345-10.463-29.345-31.386v-120.44
			c0-20.926,9.782-31.386,29.345-31.386h17.097c19.56,0,29.345,10.46,29.345,31.386v120.44c0,20.923-9.785,31.386-29.345,31.386
			H380.47z M385.319,1189.702c-6.466,0-9.697,3.571-9.697,10.716v117.38c0,7.144,3.656,10.715,10.974,10.715h6.122
			c6.463,0,9.696-3.571,9.696-10.715v-117.38c0-7.145-3.659-10.716-10.971-10.716H385.319z"/>
		<path style="fill:#FF4615;" d="M452.935,1208.073l-5.615-16.841c6.293-2.382,11.652-5.697,16.078-9.952
			c4.419-4.25,7.911-8.842,10.46-13.779h2.552l16.078,8.675v174.537h-24.242v-147.233L452.935,1208.073z"/>
	</g>
	<g>
		<path style="fill:#00A29A;" d="M2068.35,1021.704c0,125.369-149.441,222.938-149.441,222.938s-149.442-93.273-149.442-222.938
			c0-82.535,66.907-149.442,149.442-149.442C2001.443,872.262,2068.35,939.169,2068.35,1021.704z"/>
		
			<ellipse transform="matrix(0.2278 -0.9737 0.9737 0.2278 486.8625 2657.3479)" style="fill:#FFFFFF;" cx="1918.909" cy="1021.704" rx="117.234" ry="117.234"/>
	</g>
	<g>
		<path style="fill:#00A29A;" d="M1880.433,1079.17c-12.445,0-18.668-6.654-18.668-19.965v-76.617
			c0-13.311,6.223-19.966,18.668-19.966h10.877c12.442,0,18.668,6.655,18.668,19.966v76.617c0,13.311-6.226,19.965-18.668,19.965
			H1880.433z M1883.52,976.743c-4.114,0-6.17,2.273-6.17,6.819v74.668c0,4.546,2.326,6.819,6.98,6.819h3.897
			c4.111,0,6.167-2.273,6.167-6.819v-74.668c0-4.546-2.329-6.819-6.98-6.819H1883.52z"/>
		<path style="fill:#00A29A;" d="M1971.176,1065.209v13.96h-41.881v-35.873c0-1.95,0.162-3.571,0.488-4.872
			c0.323-1.298,0.893-2.513,1.703-3.65c0.813-1.137,2.246-2.734,4.302-4.79l15.746-15.096c1.189-1.19,2.134-2.217,2.839-3.083
			c0.705-0.867,1.189-1.595,1.463-2.191c0.267-0.596,0.432-1.218,0.487-1.867c0.053-0.649,0.079-1.516,0.079-2.599v-21.586
			c0-4.546-2.217-6.819-6.654-6.819h-0.975c-4.437,0-6.655,2.273-6.655,6.819v12.01h-15.584v-12.985
			c0-13.311,6.223-19.966,18.668-19.966h8.117c12.443,0,18.668,6.655,18.668,19.966v27.92c0,2.164-0.3,4.058-0.892,5.68
			c-0.596,1.624-2.138,3.627-4.625,6.008l-17.208,16.556c-2.164,2.056-3.409,3.465-3.732,4.22c-0.326,0.758-0.517,1.518-0.57,2.273
			c-0.056,0.758-0.079,1.786-0.079,3.083v16.882H1971.176z"/>
	</g>
	<g>
		<path style="fill:#FF386C;" d="M1031.662,864.406c0,92.073-109.752,163.73-109.752,163.73s-109.752-68.501-109.752-163.73
			c0-60.615,49.138-109.752,109.752-109.752C982.525,754.654,1031.662,803.791,1031.662,864.406z"/>
		
			<ellipse transform="matrix(0.7071 -0.7071 0.7071 0.7071 -341.2061 905.0677)" style="fill:#FFFFFF;" cx="921.91" cy="864.406" rx="86.099" ry="86.099"/>
	</g>
	<g>
		<path style="fill:#FF386C;" d="M893.413,906.607c-9.138,0-13.708-4.886-13.708-14.662v-56.271c0-9.775,4.569-14.662,13.708-14.662
			h7.988c9.138,0,13.71,4.887,13.71,14.662v56.271c0,9.776-4.572,14.662-13.71,14.662H893.413z M895.68,831.381
			c-3.021,0-4.531,1.671-4.531,5.01v54.837c0,3.339,1.709,5.007,5.127,5.007h2.86c3.019,0,4.531-1.668,4.531-5.007v-54.837
			c0-3.339-1.712-5.01-5.127-5.01H895.68z"/>
		<path style="fill:#FF386C;" d="M953.618,862.617c5.961,1.592,8.942,5.206,8.942,10.848v18.597c0,9.696-4.573,14.545-13.711,14.545
			h-7.75c-9.138,0-13.708-4.849-13.708-14.545v-5.482h11.444v4.648c0,3.339,1.51,5.007,4.531,5.007h2.622
			c3.415,0,5.125-1.668,5.125-5.007v-17.642c0-3.735-2.226-5.603-6.675-5.603h-3.101v-9.658h1.671c4.449,0,6.675-1.865,6.675-5.603
			v-16.213c0-3.339-1.709-5.007-5.125-5.007h-1.551c-3.021,0-4.531,1.668-4.531,5.007v8.704h-11.443v-9.538
			c0-9.775,4.569-14.662,13.711-14.662h6.674c9.139,0,13.711,4.887,13.711,14.662v17.047
			C961.13,858.127,958.625,861.425,953.618,862.617z"/>
	</g>
	<g>
		<path style="fill:#6FB100;" d="M1779.974,698.579c0,65.076-77.572,115.723-77.572,115.723s-77.573-48.416-77.573-115.723
			c0-42.842,34.731-77.572,77.573-77.572S1779.974,655.738,1779.974,698.579z"/>
		
			<ellipse transform="matrix(0.8187 -0.5742 0.5742 0.8187 -92.4924 1104.215)" style="fill:#FFFFFF;" cx="1702.402" cy="698.58" rx="60.854" ry="60.854"/>
	</g>
	<g>
		<path style="fill:#6FB100;" d="M1682.515,728.407c-6.46,0-9.69-3.453-9.69-10.363v-39.773c0-6.907,3.23-10.363,9.69-10.363h5.644
			c6.46,0,9.69,3.456,9.69,10.363v39.773c0,6.91-3.23,10.363-9.69,10.363H1682.515z M1684.116,675.238
			c-2.135,0-3.201,1.181-3.201,3.542v38.759c0,2.358,1.207,3.539,3.623,3.539h2.021c2.135,0,3.204-1.181,3.204-3.539V678.78
			c0-2.361-1.21-3.542-3.624-3.542H1684.116z"/>
		<path style="fill:#6FB100;" d="M1732.986,714.253h-4.634v14.154h-7.92v-14.154h-14.157l-1.686-6.828l15.673-39.517h8.09v39.517
			h4.634V714.253z M1721.275,684.004h-0.423l-7.667,23.422h7.5L1721.275,684.004z"/>
	</g>
	<g>
		<path style="fill:#0064BF;" d="M1162.156,609.753c0,48.859-58.24,86.884-58.24,86.884s-58.241-36.351-58.241-86.884
			c0-32.166,26.075-58.241,58.241-58.241C1136.08,551.512,1162.156,577.587,1162.156,609.753z"/>
		<path style="fill:#FFFFFF;" d="M1149.604,609.753c0,25.233-20.456,45.688-45.689,45.688s-45.689-20.455-45.689-45.688
			c0-25.233,20.456-45.689,45.689-45.689S1149.604,584.52,1149.604,609.753z"/>
	</g>
	<g>
		<path style="fill:#0064BF;" d="M1089.079,632.147c-4.851,0-7.277-2.593-7.277-7.782v-29.859c0-5.189,2.426-7.782,7.277-7.782
			h4.237c4.851,0,7.277,2.593,7.277,7.782v29.859c0,5.189-2.426,7.782-7.277,7.782H1089.079z M1090.28,592.228
			c-1.603,0-2.402,0.886-2.402,2.657v29.101c0,1.771,0.905,2.658,2.719,2.658h1.519c1.603,0,2.405-0.887,2.405-2.658v-29.101
			c0-1.771-0.907-2.657-2.722-2.657H1090.28z"/>
		<path style="fill:#0064BF;" d="M1107.236,621.52h6.072v2.466c0,1.771,0.799,2.658,2.402,2.658h0.696
			c1.814,0,2.722-0.887,2.722-2.658v-10.375c0-1.982-0.846-2.975-2.531-2.975h-9.174v-23.912h17.144v5.632h-11.45v12.777h4.807
			c4.851,0,7.277,2.679,7.277,8.035v10.944c0,5.356-2.426,8.034-7.277,8.034h-3.415c-4.851,0-7.273-2.572-7.273-7.717V621.52z"/>
	</g>
	<g>
		<path style="fill:#5A00BF;" d="M1511.57,542.191c0,37.028-44.138,65.846-44.138,65.846s-44.138-27.549-44.138-65.846
			c0-24.377,19.761-44.138,44.138-44.138S1511.57,517.815,1511.57,542.191z"/>
		
			<ellipse transform="matrix(0.2298 -0.9732 0.9732 0.2298 602.5983 1845.7982)" style="fill:#FFFFFF;" cx="1467.432" cy="542.191" rx="34.625" ry="34.625"/>
	</g>
	<g>
		<path style="fill:#5A00BF;" d="M1455.681,559.162c-3.676,0-5.512-1.965-5.512-5.897v-22.629c0-3.932,1.836-5.896,5.512-5.896
			h3.213c3.676,0,5.515,1.964,5.515,5.896v22.629c0,3.932-1.839,5.897-5.515,5.897H1455.681z M1456.592,528.909
			c-1.213,0-1.82,0.672-1.82,2.015v22.054c0,1.342,0.687,2.014,2.061,2.014h1.151c1.213,0,1.821-0.672,1.821-2.014v-22.054
			c0-1.342-0.687-2.015-2.062-2.015H1456.592z"/>
		<path style="fill:#5A00BF;" d="M1478.936,534.471v-3.068c0-1.662-0.69-2.493-2.061-2.493h-0.77c-1.212,0-1.82,0.672-1.82,2.015
			v10.451l2.878-1.918h1.389c3.515,0,5.274,1.965,5.274,5.897v8.008c0,3.868-1.759,5.8-5.274,5.8h-3.595
			c-3.518,0-5.274-1.932-5.274-5.8v-22.726c0-3.932,1.755-5.896,5.274-5.896h3.307c3.515,0,5.274,1.964,5.274,5.896v3.835H1478.936z
			 M1474.284,543.628v9.303c0,1.374,0.672,2.061,2.014,2.061h0.864c1.371,0,2.062-0.687,2.062-2.061v-6.81
			c0-1.662-0.69-2.493-2.062-2.493H1474.284z"/>
	</g>
</g>
</svg>
